<svg xmlns="http://www.w3.org/2000/svg" width="50" height="50"><path fill="#DA1868" d="m7.018 28.001-5.933-7.239s17.696-2.112 23.427 8.043c-.001 0-7.039-3.719-17.494-.804zM14.659 9.602l4.725 4.222 2.815 7.541-6.737-5.882zM40.6 14.075s2.463 1.409 4.524 2.062l-12.218 8.556c0-.001 4.878-4.786 7.694-10.618z"/><path fill="#1B77BB" d="M31.651 29.509S47.385 19.756 50 30.615c0 0-.532 6.593-7.038 3.47-2.75-1.322-6.587-4.427-11.311-4.576z"/><path fill="#7FB342" d="M31.047 3.569s-12.366-2.414-2.916 23.225c0 0 .704-5.429 5.731-12.719 0 0 5.732-9.2-2.815-10.506zM26.422 32.524s-8.144 1.006-13.624 14.479l8.395-2.011s-1.005-7.44 5.229-12.468z"/><ellipse cx="16.391" cy="31.778" fill="#1777BB" rx="3.888" ry="2.196" transform="rotate(-18.986 16.388 31.776)"/></svg>